<?xml version="1.0" standalone="no"?>
<!DOCTYPE svg PUBLIC "-//W3C//DTD SVG 20010904//EN"
 "http://www.w3.org/TR/2001/REC-SVG-20010904/DTD/svg10.dtd">
<svg version="1.0" xmlns="http://www.w3.org/2000/svg"
 width="512.000000pt" height="512.000000pt" viewBox="0 0 512.000000 512.000000"
 preserveAspectRatio="xMidYMid meet">
<metadata>
Created by potrace 1.11, written by Peter Selinger 2001-2013
</metadata>
<g transform="translate(0.000000,512.000000) scale(0.100000,-0.100000)"
fill="#000000" stroke="none">
<path d="M2307 4705 c-670 -85 -1245 -455 -1593 -1025 -257 -421 -360 -935
-288 -1430 116 -802 687 -1482 1455 -1734 234 -77 421 -106 681 -106 435 0
819 115 1183 354 498 327 830 837 941 1441 21 118 30 461 15 591 -85 741 -532
1377 -1196 1703 -190 94 -411 164 -623 197 -138 21 -441 27 -575 9z m995
-1473 l23 -23 3 -577 c2 -317 0 -592 -3 -610 -3 -18 -15 -42 -26 -53 -17 -17
-34 -19 -203 -19 -166 0 -186 2 -207 19 l-24 19 0 610 c0 580 1 611 19 630 25
29 38 30 228 29 160 -2 169 -3 190 -25z m-613 -238 c21 -26 21 -36 21 -509 0
-473 0 -483 -21 -509 l-20 -26 -187 0 c-177 0 -187 1 -209 22 l-23 21 0 491
c0 489 0 490 22 513 21 22 26 23 209 23 l188 0 20 -26z m-629 -214 c36 -19 40
-63 40 -410 0 -347 -4 -391 -40 -410 -10 -6 -99 -10 -198 -10 -162 0 -182 2
-203 19 l-24 19 0 382 0 382 24 19 c21 17 41 19 203 19 99 0 188 -4 198 -10z"/>
</g>
</svg>
